		<?xml version="1.0" encoding="iso-8859-1"?>
<!-- Generator: Adobe Illustrator 19.0.0, SVG Export Plug-In . SVG Version: 6.00 Build 0)  -->
<svg version="1.1" id="Layer_1" xmlns="http://www.w3.org/2000/svg" xmlns:xlink="http://www.w3.org/1999/xlink" x="0px" y="0px"
	 viewBox="0 0 512 512" style="enable-background:new 0 0 512 512;" xml:space="preserve">
<g>
	<g>
		<path d="M83.565,427.741c-0.452-1.079-1.079-2.07-1.886-2.877c-0.452-0.447-0.899-0.807-1.439-1.167
			c-0.447-0.272-0.987-0.632-1.526-0.807c-0.539-0.184-1.079-0.36-1.618-0.544c-2.965-0.623-6.018,0.36-8.171,2.518
			c-0.812,0.807-1.439,1.798-1.89,2.877c-0.448,1.079-0.715,2.246-0.715,3.412c0,2.421,0.895,4.667,2.606,6.378
			c1.706,1.702,3.952,2.693,6.377,2.693c1.167,0,2.334-0.272,3.412-0.719c1.079-0.447,2.066-1.167,2.965-1.974
			c1.706-1.711,2.606-3.957,2.606-6.378C84.284,429.987,84.012,428.82,83.565,427.741z"/>
	</g>
</g>
<g>
	<g>
		<path d="M137.463,445.707c-0.452-1.079-1.079-2.07-1.886-2.878c-0.899-0.895-1.886-1.526-2.965-1.974
			c-3.325-1.351-7.277-0.544-9.79,1.974c-0.812,0.807-1.439,1.798-1.891,2.877c-0.448,1.079-0.715,2.246-0.715,3.412
			c0,2.421,0.895,4.667,2.606,6.378c0.895,0.895,1.886,1.526,2.961,1.974c1.079,0.447,2.246,0.632,3.417,0.632
			c2.426,0,4.671-0.903,6.378-2.605c1.706-1.711,2.605-3.957,2.605-6.378C138.182,447.953,138.002,446.786,137.463,445.707z"/>
	</g>
</g>
<g>
	<g>
		<path d="M182.378,472.656c-0.452-1.079-1.079-2.07-1.886-2.878c-2.518-2.518-6.557-3.325-9.794-1.974
			c-1.075,0.448-2.066,1.079-2.961,1.974c-0.812,0.807-1.439,1.798-1.89,2.878c-0.448,1.079-0.715,2.246-0.715,3.412
			c0,1.254,0.268,2.421,0.715,3.5c0.452,1.079,1.079,2.07,1.89,2.877c0.895,0.895,1.886,1.526,2.961,1.974
			c1.079,0.447,2.246,0.719,3.417,0.719c1.167,0,2.334-0.272,3.412-0.719c1.079-0.447,2.066-1.079,2.965-1.974
			c0.807-0.807,1.434-1.798,1.886-2.877c0.539-1.079,0.719-2.246,0.719-3.5C183.097,474.902,182.917,473.735,182.378,472.656z"/>
	</g>
</g>
<g>
	<g>
		<path d="M102.07,501.307c-0.092-0.623-0.272-1.167-0.539-1.702c-0.18-0.544-0.452-1.079-0.811-1.526
			c-0.355-0.544-0.715-0.991-1.075-1.351c-0.452-0.447-0.899-0.807-1.439-1.167c-0.447-0.272-0.987-0.632-1.526-0.807
			c-0.539-0.184-1.079-0.359-1.619-0.544c-1.794-0.359-3.592-0.175-5.211,0.544c-1.075,0.448-2.066,1.079-2.961,1.974
			c-1.618,1.614-2.605,3.957-2.605,6.29c0,1.254,0.267,2.421,0.715,3.5c0.452,1.079,1.079,2.07,1.891,2.877
			c1.706,1.702,3.952,2.605,6.377,2.605c1.167,0,2.334-0.184,3.412-0.632c1.079-0.447,2.066-1.079,2.965-1.974
			c0.807-0.807,1.434-1.798,1.886-2.877c0.447-1.079,0.719-2.246,0.719-3.5C102.25,502.473,102.158,501.85,102.07,501.307z"/>
	</g>
</g>
<g>
	<g>
		<path d="M171.508,370.966c-2.518-2.518-6.47-3.325-9.794-1.974c-1.075,0.448-2.066,1.079-2.961,1.974
			c-1.619,1.614-2.606,3.957-2.606,6.29c0,1.254,0.18,2.421,0.715,3.5c0.452,1.079,1.079,2.07,1.89,2.877
			c1.706,1.702,3.952,2.605,6.378,2.605c2.426,0,4.671-0.903,6.377-2.605c0.807-0.807,1.434-1.798,1.886-2.877
			c0.539-1.079,0.719-2.246,0.719-3.5C174.114,374.922,173.123,372.58,171.508,370.966z"/>
	</g>
</g>
<g>
	<g>
		<path d="M272.207,185.196c-0.452-1.075-1.079-2.066-1.886-2.873c-3.417-3.412-9.343-3.412-12.755,0
			c-1.619,1.619-2.606,3.952-2.606,6.29c0,2.426,0.987,4.671,2.606,6.378c1.706,1.706,4.04,2.605,6.378,2.605
			c2.334,0,4.671-0.899,6.377-2.605c0.807-0.812,1.434-1.798,1.886-2.878c0.539-1.167,0.719-2.333,0.719-3.5
			C272.927,187.442,272.747,186.275,272.207,185.196z"/>
	</g>
</g>
<g>
	<g>
		<path d="M317.662,141.992c-0.092-0.632-0.272-1.171-0.539-1.711c-0.18-0.535-0.452-1.075-0.811-1.526
			c-0.355-0.539-0.715-0.987-1.075-1.347c-0.452-0.447-0.899-0.807-1.347-1.167c-0.539-0.272-1.079-0.632-1.619-0.811
			c-0.539-0.268-1.079-0.355-1.618-0.535c-2.965-0.539-6.018,0.36-8.171,2.513c-1.619,1.619-2.606,3.952-2.606,6.29
			c0,1.254,0.267,2.334,0.715,3.5c0.452,1.079,1.079,2.066,1.89,2.878c0.895,0.807,1.886,1.526,2.961,1.974
			c1.079,0.452,2.246,0.631,3.417,0.631c0.539,0,1.167,0,1.794-0.18c0.54-0.092,1.079-0.272,1.618-0.452
			c0.54-0.268,1.079-0.54,1.619-0.807c0.448-0.36,0.895-0.719,1.347-1.167c1.614-1.706,2.606-3.952,2.606-6.378
			C317.842,143.158,317.75,142.527,317.662,141.992z"/>
	</g>
</g>
<g>
	<g>
		<path d="M371.56,97.077c-0.092-0.632-0.272-1.171-0.539-1.711c-0.18-0.535-0.452-1.075-0.811-1.526
			c-0.268-0.539-0.715-0.987-1.075-1.347c-0.899-0.899-1.886-1.526-2.965-1.978c-2.158-0.895-4.671-0.895-6.829,0
			c-1.167,0.452-2.066,1.079-2.961,1.978c-0.36,0.36-0.72,0.807-1.079,1.347c-0.36,0.452-0.632,0.992-0.811,1.526
			c-0.268,0.54-0.448,1.079-0.535,1.711c-0.092,0.535-0.18,1.167-0.18,1.706c0,0.627,0.088,1.167,0.18,1.794
			c0.087,0.54,0.267,1.167,0.535,1.706c0.18,0.539,0.452,0.991,0.811,1.531c0.36,0.447,0.719,0.895,1.079,1.347
			c0.895,0.807,1.794,1.526,2.961,1.974c1.079,0.452,2.246,0.632,3.417,0.632c1.167,0,2.334-0.18,3.412-0.632
			c1.079-0.447,2.066-1.167,2.965-1.974c1.614-1.706,2.605-3.952,2.605-6.378C371.739,98.244,371.647,97.612,371.56,97.077z"/>
	</g>
</g>
<g>
	<g>
		<path d="M272.207,68.417c-0.452-1.075-1.079-2.066-1.886-2.873c-2.066-2.153-5.211-3.053-8.176-2.513
			c-0.539,0.18-1.079,0.267-1.619,0.535c-0.535,0.18-1.075,0.539-1.614,0.811c-0.452,0.36-0.899,0.719-1.347,1.167
			c-0.812,0.807-1.439,1.798-1.89,2.873c-0.448,1.079-0.715,2.246-0.715,3.417c0,1.254,0.267,2.334,0.715,3.5
			c0.452,1.079,1.079,2.066,1.891,2.877c0.447,0.447,0.895,0.807,1.346,1.167c0.539,0.267,1.079,0.539,1.614,0.807
			c0.539,0.18,1.079,0.359,1.619,0.452c0.627,0.18,1.259,0.18,1.798,0.18c2.334,0,4.671-0.899,6.377-2.605
			c0.807-0.812,1.434-1.798,1.886-2.877c0.447-1.167,0.719-2.246,0.719-3.5C272.926,70.663,272.654,69.496,272.207,68.417z"/>
	</g>
</g>
<g>
	<g>
		<path d="M407.492,168.941c-0.092-0.632-0.272-1.171-0.539-1.711c-0.18-0.535-0.452-1.075-0.811-1.526
			c-0.355-0.539-0.715-0.987-1.075-1.347c-0.899-0.899-1.886-1.526-2.965-1.978c-1.619-0.715-3.412-0.895-5.211-0.535
			c-0.539,0.18-1.079,0.267-1.619,0.535c-0.535,0.18-1.075,0.539-1.614,0.811c-0.452,0.36-0.899,0.719-1.346,1.167
			c-1.619,1.619-2.606,3.952-2.606,6.29c0,1.255,0.267,2.334,0.715,3.5c0.452,1.079,1.079,2.066,1.891,2.878
			c0.447,0.447,0.895,0.807,1.346,1.075c0.539,0.36,1.079,0.631,1.614,0.899c0.539,0.18,1.079,0.36,1.619,0.452
			c0.627,0.18,1.259,0.18,1.798,0.18c2.334,0,4.671-0.899,6.377-2.605c1.614-1.706,2.606-4.044,2.606-6.378
			C407.671,170.107,407.579,169.476,407.492,168.941z"/>
	</g>
</g>
<g>
	<g>
		<path d="M174.539,47.013C164.368,33.7,149.117,26.95,129.199,26.95c-66.478,0-92.264-24.129-92.462-24.317
			c-2.671-2.671-6.72-3.391-10.163-1.785c-3.426,1.606-5.478,5.185-5.136,8.948c0.983,10.799,11.036,105.782,61.083,115.792
			l89.83,17.966c0.064,0.012,0.124,0.008,0.187,0.019c0.522,0.093,1.05,0.158,1.585,0.157c0.435,0,0.873-0.044,1.309-0.108
			c0.114-0.017,0.227-0.038,0.34-0.058c0.358-0.068,0.715-0.156,1.069-0.27c0.069-0.022,0.14-0.037,0.209-0.062
			c0.365-0.126,0.727-0.272,1.081-0.45c0.032-0.015,0.057-0.04,0.088-0.056c0.484-0.249,0.944-0.537,1.375-0.868
			c0.129-0.1,0.238-0.216,0.361-0.323c0.288-0.248,0.568-0.505,0.824-0.789c0.14-0.157,0.265-0.32,0.394-0.485
			c0.206-0.264,0.399-0.536,0.576-0.825c0.112-0.182,0.217-0.365,0.316-0.555c0.151-0.291,0.281-0.593,0.401-0.903
			c0.079-0.205,0.16-0.406,0.225-0.616c0.026-0.086,0.068-0.163,0.091-0.251C183.43,134.724,198.444,78.313,174.539,47.013z
			 M169.413,109.215c-37.408-53.584-84.381-46.578-86.607-46.21c-4.891,0.816-8.198,5.443-7.382,10.338
			c0.816,4.886,5.412,8.185,10.338,7.382c0.401-0.071,39.143-5.847,70.655,41.319l-70.37-14.072
			c-25.256-5.053-38.59-49.977-44.06-80.698c16.19,8.215,44.143,17.641,87.211,17.641c14.207,0,24.361,4.246,31.046,12.979
			C170.569,71.389,171.039,92.799,169.413,109.215z"/>
	</g>
</g>
<g>
	<g>
		<path d="M493.093,230.738c-24.795-24.155-78.447-26.142-159.465-5.891c-76.684,19.163-99.576,6.461-106.388-2.833
			c-11.457-15.606,2.198-45.441,8.431-55.622c2.583-4.228,1.263-9.755-2.965-12.347c-4.215-2.605-9.751-1.281-12.343,2.943
			c-1.175,1.908-28.532,47.082-7.636,75.618c17.071,23.308,58.034,26.484,125.262,9.667c97.321-24.326,130.968-9.746,142.342,1.114
			c10.996,10.492,8.496,23.686,8.404,24.16c-1.079,4.842,1.978,9.641,6.821,10.72c0.654,0.14,1.311,0.21,1.956,0.21
			c4.119,0,7.829-2.851,8.759-7.035C506.48,270.504,511.156,248.327,493.093,230.738z"/>
	</g>
</g>
<g>
	<g>
		<path d="M502.651,369.93c-3.842-2.693-95.251-65.39-188.827-18.641c-63.394,31.704-65.175,68.802-62.999,83.286
			c3.781,25.133,26.51,45.38,56.556,50.389c4.005,0.667,7.755,1,11.246,1c11.637,0,20.422-3.693,26.195-11.053
			c14.681-18.694,0.868-52.459-0.759-56.24c-1.952-4.553-7.215-6.676-11.781-4.719c-4.557,1.948-6.676,7.22-4.733,11.781
			c3.79,8.913,9.544,29.949,3.136,38.099c-3.917,4.965-13.224,4.597-20.348,3.412c-22.352-3.728-39.125-17.931-41.744-35.344
			c-3.369-22.405,16.045-45.933,53.266-64.539c83.834-41.924,169.641,16.694,170.497,17.299c4.083,2.833,9.676,1.833,12.505-2.228
			C507.699,378.37,506.712,372.773,502.651,369.93z"/>
	</g>
</g>
<g>
	<g>
		<path d="M500.922,306.102c-6.382-2.623-158.154-63.539-312.667,9.159c-50.402,23.738-98.896,21.966-133.017-4.807
			c-23.409-18.361-35.984-46.292-31.296-69.487c3.487-17.251,15.852-29.243,35.756-34.669c24.883-6.794,43.34-4.952,54.876,5.448
			c21.918,19.756,14.817,64.811,14.742,65.267c-0.798,4.895,2.509,9.509,7.4,10.325c4.904,0.816,9.514-2.491,10.325-7.386
			c0.373-2.237,8.803-55.126-20.387-81.505c-16.378-14.803-40.489-17.983-71.684-9.483c-26.51,7.233-43.783,24.435-48.639,48.441
			c-6,29.695,9.193,64.732,37.818,87.18c21.457,16.834,47.485,25.3,75.851,25.3c24.08,0,49.841-6.097,75.904-18.361
			c147.171-69.258,296.693-9.413,298.18-8.807c4.606,1.886,9.834-0.307,11.724-4.895
			C507.69,313.234,505.506,307.988,500.922,306.102z"/>
	</g>
</g>
<g>
</g>
<g>
</g>
<g>
</g>
<g>
</g>
<g>
</g>
<g>
</g>
<g>
</g>
<g>
</g>
<g>
</g>
<g>
</g>
<g>
</g>
<g>
</g>
<g>
</g>
<g>
</g>
<g>
</g>
</svg>
